Coordinates
version=1
nRows=19
nColumns=24
inDegrees=yes

Units are S.I. units (second, meters, Newtons, ...)
Angles are in degrees.

endheader
time	pelvis_tilt	pelvis_list	pelvis_rotation	pelvis_tx	pelvis_ty	pelvis_tz	hip_flexion_r	hip_adduction_r	hip_rotation_r	knee_angle_r	ankle_angle_r	subtalar_angle_r	mtp_angle_r	hip_flexion_l	hip_adduction_l	hip_rotation_l	knee_angle_l	ankle_angle_l	subtalar_angle_l	mtp_angle_l	lumbar_extension	lumbar_bending	lumbar_rotation
      1.71200000	      9.43952325	     -0.14357419	     -3.43400888	      1.37290477	      1.03750996	      0.30699073	     11.83842476	     -4.11212300	     -7.53123503	    -63.37570465	      0.82466133	     -5.75973884	     -6.73273520	     -2.93958632	      3.60855163	     -1.53142113	    -11.83552287	      0.75948910	    -20.14921836	    -11.50502363	    -20.32828382	     -2.82466048	     -1.17395510
      1.71616667	      9.59128048	     -0.31001628	     -3.12625594	      1.37784814	      1.03844136	      0.30609709	     12.07179128	     -3.94557917	     -7.93865308	    -62.54134267	      1.29270561	     -5.59180166	     -6.70442289	     -3.57451204	      3.47256834	     -1.25169046	    -11.50309439	      0.78341667	    -20.13837950	    -11.51651492	    -20.54083490	     -2.50658373	     -1.42715037
      1.72033333	      9.62503604	     -0.45570078	     -2.91408228	      1.38287691	      1.03912844	      0.30539719	     12.44971046	     -3.77282265	     -8.23504997	    -61.70341719	      1.74689820	     -5.31897530	     -6.69057398	     -4.08139296	      3.34759356	     -1.08743082	    -11.18911944	      0.84651872	    -20.10648746	    -11.52180366	    -20.60001205	     -2.22262961	     -1.52668013
      1.72450000	      9.77807244	     -0.61702230	     -2.62681091	      1.38779189	      1.03997673	      0.30455628	     12.65691758	     -3.61072212	     -8.62314333	    -60.78489239	      2.19550715	     -5.18691264	     -6.68437290	     -4.71165599	      3.20801052	     -0.81688392	    -10.86209591	      0.87161399	    -20.11740594	    -11.52703842	    -20.81519318	     -1.91380120	     -1.76877970
      1.72866667	      9.83360165	     -0.75678019	     -2.40211084	      1.39275918	      1.04061121	      0.30385538	     12.97632820	     -3.45109897	     -8.93595698	    -59.85899076	      2.63749071	     -5.01853377	     -6.68471694	     -5.22362463	      3.08191899	     -0.62411394	    -10.56379734	      0.92326734	    -20.10862869	    -11.52926796	    -20.90524244	     -1.64069284	     -1.91205451
      1.73283333	      9.86027548	     -0.88439862	     -2.23811702	      1.39773442	      1.04115734	      0.30327292	     13.32693352	     -3.29029493	     -9.18543128	    -58.90125475	      3.03598222	     -4.84256999	     -6.68916954	     -5.71485502	      2.96762487	     -0.50600364	    -10.25124346	      0.97084125	    -20.11324507	    -11.53017674	    -20.94651349	     -1.38883176	     -1.99491626
      1.73700000	      9.99032707	     -1.03108110	     -1.98813060	      1.40259544	      1.04183557	      0.30254779	     13.52091524	     -3.13164553	     -9.52508302	    -57.86656805	      3.46363737	     -4.76250726	     -6.71068105	     -6.29670659	      2.82939583	     -0.26371730	     -9.96135929	      1.01775434	    -20.11751741	    -11.52704022	    -21.13783011	     -1.11229689	     -2.15684588
      1.74116667	      9.91811308	     -1.10923513	     -1.90209953	      1.40751179	      1.04209412	      0.30221468	     13.99074167	     -2.98316982	     -9.66372141	    -56.88896661	      3.90241141	     -4.69960807	     -6.71440730	     -6.65327853	      2.75792753	     -0.20845469	     -9.69643768	      1.05537528	    -20.12282418	    -11.52685139	    -21.07460953	     -0.96678723	     -2.17799682
      1.74533333	     10.02760070	     -1.26747113	     -1.63886950	      1.41240040	      1.04269484	      0.30144301	     14.15465538	     -2.82478202	    -10.02200153	    -55.74360821	      4.23151534	     -4.57154855	     -6.75110342	     -7.20160362	      2.59971578	      0.03717707	     -9.42956921	      1.16309313	    -20.09116366	    -11.51958481	    -21.23711990	     -0.65166424	     -2.31454791
      1.74950000	      9.98364421	     -1.32606730	     -1.56535185	      1.41727402	      1.04289163	      0.30113910	     14.56451031	     -2.69950593	    -10.14780661	    -54.69373949	      4.65035378	     -4.57305958	     -6.76244720	     -7.57523614	      2.54916794	      0.06635228	     -9.18922004	      1.21117325	    -20.11947867	    -11.51762055	    -21.20266641	     -0.52743106	     -2.35751662
      1.75366667	     10.07174106	     -1.45692481	     -1.34722082	      1.42213583	      1.04336423	      0.30049183	     14.73614274	     -2.55244776	    -10.44502321	    -53.48602161	      4.92760833	     -4.52032111	     -6.81059593	     -8.09797014	      2.41498315	      0.27629806	     -8.92324859	      1.31816879	    -20.07584480	    -11.51038326	    -21.33534965	     -0.25891129	     -2.45977691
      1.75783333	     10.11396397	     -1.54380952	     -1.20551537	      1.42700482	      1.04367797	      0.30003354	     14.97117009	     -2.42451727	    -10.65242763	    -52.29073888	      5.27929163	     -4.54234138	     -6.87775242	     -8.56761378	      2.32926024	      0.38457588	     -8.66898724	      1.38976309	    -20.09276390	    -11.50097896	    -21.41116064	     -0.07259579	     -2.56118707
      1.76200000	     10.09400343	     -1.61559268	     -1.10536852	      1.43185047	      1.04383984	      0.29968760	     15.27458061	     -2.29324617	    -10.79760134	    -51.07336880	      5.57277897	     -4.54309748	     -6.92814831	     -8.95385161	      2.25732441	      0.45134692	     -8.44954916	      1.49760728	    -20.06339964	    -11.49434810	    -21.41241087	      0.07947479	     -2.58072589
      1.76616667	     10.00498951	     -1.64124038	     -1.05905923	      1.43669582	      1.04382022	      0.29947071	     15.66273468	     -2.19243949	    -10.87609141	    -49.86829018	      5.94427389	     -4.57621135	     -6.94722793	     -9.26390979	      2.23824154	      0.46563730	     -8.23506994	      1.58552308	    -20.07502366	    -11.49178071	    -21.34020249	      0.15869635	     -2.58654228
      1.77033333	     10.02108153	     -1.73468053	     -0.92823068	      1.44156279	      1.04401330	      0.29909540	     15.85992622	     -2.04240943	    -11.05330114	    -48.52099595	      6.13206090	     -4.64169276	     -7.01309997	     -9.68890119	      2.13358122	      0.54578360	     -8.01509932	      1.73270511	    -19.97726833	    -11.48452581	    -21.37946912	      0.34616621	     -2.60890298
      1.77450000	     10.01176252	     -1.78490857	     -0.83461408	      1.44637122	      1.04407735	      0.29879808	     16.09452659	     -1.92858026	    -11.17989023	    -47.18304743	      6.40715073	     -4.69100153	     -7.08758809	    -10.07613604	      2.07973327	      0.59122042	     -7.81000200	      1.85716622	    -19.93347248	    -11.47829766	    -21.40404951	      0.47043240	     -2.64014715
      1.77866667	      9.91231384	     -1.77452073	     -0.80433008	      1.45118982	      1.04389920	      0.29864252	     16.44601076	     -1.85959538	    -11.22260459	    -45.88014904	      6.73304676	     -4.74068780	     -7.11291535	    -10.35544346	      2.09802540	      0.59291882	     -7.63408470	      1.98001041	    -19.94019616	    -11.47562645	    -21.31877008	      0.50457592	     -2.64278551
      1.78283333	      9.91124648	     -1.83771917	     -0.70410112	      1.45604084	      1.04393667	      0.29836946	     16.61242149	     -1.72360621	    -11.34064350	    -44.42695425	      6.88322666	     -4.85391355	     -7.19250639	    -10.75235471	      2.02231853	      0.62945809	     -7.43314546	      2.14720176	    -19.81240833	    -11.46918084	    -21.34037262	      0.64459511	     -2.63763226
      1.78700000	      9.89621442	     -1.86237465	     -0.63991698	      1.46084973	      1.04386657	      0.29816870	     16.79757468	     -1.62049299	    -11.41786220	    -42.98060123	      7.12161742	     -4.94923870	     -7.28820575	    -11.12241509	      1.99380834	      0.63145121	     -7.25403447	      2.30730011	    -19.73854628	    -11.46307236	    -21.35496040	      0.73030377	     -2.65717674
